# xmcd CD database file
#
# Track frame offsets:
#	150
#	12617
#	23070
#	41170
#	57482
#	74557
#	90355
#	103285
#	115405
#	126490
#	138542
#	151455
#
# Disc length: 2203 seconds
#
# Revision: 0
# Processed by: cddbd v1.5.1PL0 Copyright (c) Steve Scherf et al.
# Submitted via: CDex 1.51
#
DISCID=b408990c
DTITLE=Quincy Jones - Quincy Plays For Pussycats
DYEAR=1959
DGENRE=Jazz
TTITLE0=What's New Pussycat
TTITLE1=The Gentle Rain From The Movie "The Gentle Rain"
TTITLE2=Blues In The Might
TTITLE3=After Hours
TTITLE4=Blues For Trumpet and Koto
TTITLE5=(I Can't Get No) Satisfaction
TTITLE6=A Walk In The Black Forest
TTITLE7=Non Stop To Brazil From The Movie "The Gentle Rain"
TTITLE8=The Hucklebuck
TTITLE9=Mack The Knife
TTITLE10=Sermonette
TTITLE11=The "In" Crowd
EXTD=YEAR: 1959
EXTT0=
EXTT1=
EXTT2=
EXTT3=
EXTT4=
EXTT5=
EXTT6=
EXTT7=
EXTT8=
EXTT9=
EXTT10=
EXTT11=
PLAYORDER=
